<svg width="50" height="236" viewBox="0 0 50 236" fill="none" xmlns="http://www.w3.org/2000/svg">
<rect width="236" height="50" transform="matrix(0 -1 1 0 0 236)" fill="#2C1B1B"/>
<path d="M38.456 180.519C38.456 181.862 38.2913 183.116 37.962 184.281C37.6327 185.446 37.1767 186.485 36.594 187.397C35.986 188.309 35.3147 189.069 34.58 189.677C33.8453 190.26 33.0727 190.64 32.262 190.817L30.742 185.725C31.6033 185.396 32.3507 184.813 32.984 183.977C33.592 183.141 33.9087 182.09 33.934 180.823C33.9593 179.48 33.668 178.391 33.06 177.555C32.452 176.694 31.6667 176.263 30.704 176.263C29.868 176.263 29.1713 176.605 28.614 177.289C28.0313 177.948 27.588 178.86 27.284 180.025L26.372 183.483C26.0427 184.775 25.5487 185.915 24.89 186.903C24.206 187.891 23.37 188.664 22.382 189.221C21.394 189.778 20.2413 190.057 18.924 190.057C16.416 190.057 14.4653 189.234 13.072 187.587C11.6533 185.915 10.944 183.559 10.944 180.519C10.944 178.822 11.1973 177.34 11.704 176.073C12.1853 174.781 12.882 173.704 13.794 172.843C14.706 171.982 15.7827 171.323 17.024 170.867L18.582 175.921C17.7207 176.225 16.986 176.782 16.378 177.593C15.77 178.404 15.466 179.43 15.466 180.671C15.466 181.938 15.7573 182.938 16.34 183.673C16.9227 184.382 17.746 184.737 18.81 184.737C19.646 184.737 20.3047 184.458 20.786 183.901C21.2673 183.318 21.6347 182.533 21.888 181.545L22.762 178.049C23.3193 175.769 24.32 173.996 25.764 172.729C27.208 171.462 28.8167 170.829 30.59 170.829C32.1607 170.829 33.5413 171.209 34.732 171.969C35.8973 172.729 36.8093 173.831 37.468 175.275C38.1267 176.719 38.456 178.467 38.456 180.519ZM38 158.743H16.15L16.15 166.723H11.4L11.4 145.595H16.15V153.537H38V158.743ZM38 110.691L11.4 120.875V115.669L38 105.181V110.691ZM38 131.705L11.4 121.217V116.011L38 126.195V131.705ZM32.148 126.765H27.55L27.55 110.083H32.148V126.765ZM38 99.9938H11.4L11.4 90.1138C11.4 88.2392 11.78 86.5798 12.54 85.1358C13.2747 83.6918 14.3133 82.5645 15.656 81.7538C16.9733 80.9432 18.506 80.5378 20.254 80.5378C21.9767 80.5378 23.5093 80.9305 24.852 81.7158C26.1947 82.5012 27.2587 83.5778 28.044 84.9458C28.804 86.3138 29.184 87.8972 29.184 89.6958V94.7878H38V99.9938ZM24.396 94.7878L24.396 89.8098C24.396 88.6445 24.016 87.6945 23.256 86.9598C22.4707 86.1998 21.47 85.8198 20.254 85.8198C19.038 85.8198 18.05 86.2378 17.29 87.0738C16.53 87.8845 16.15 88.9358 16.15 90.2278V94.7878H24.396ZM38 75.0974H11.4L11.4 65.2174C11.4 63.3427 11.78 61.6834 12.54 60.2394C13.2747 58.7954 14.3133 57.668 15.656 56.8573C16.9733 56.0467 18.506 55.6414 20.254 55.6414C21.9767 55.6414 23.5093 56.034 24.852 56.8194C26.1947 57.6047 27.2587 58.6814 28.044 60.0494C28.804 61.4174 29.184 63.0007 29.184 64.7994V69.8914H38V75.0974ZM24.396 69.8914V64.9134C24.396 63.748 24.016 62.798 23.256 62.0634C22.4707 61.3034 21.47 60.9234 20.254 60.9234C19.038 60.9234 18.05 61.3414 17.29 62.1774C16.53 62.988 16.15 64.0394 16.15 65.3314V69.8914H24.396ZM38.57 48.3769C38.57 49.2129 38.266 49.9349 37.658 50.5429C37.05 51.1255 36.328 51.4169 35.492 51.4169C34.6813 51.4169 33.972 51.1255 33.364 50.5429C32.756 49.9349 32.452 49.2129 32.452 48.3769C32.452 47.5409 32.756 46.8315 33.364 46.2489C33.972 45.6409 34.6813 45.3369 35.492 45.3369C36.328 45.3369 37.05 45.6409 37.658 46.2489C38.266 46.8315 38.57 47.5409 38.57 48.3769Z" fill="white"/>
</svg>
