<svg width="50" height="272" viewBox="0 0 50 272" fill="none" xmlns="http://www.w3.org/2000/svg">
<rect width="272" height="50" transform="matrix(0 -1 1 0 0 272)" fill="#2C1B1B"/>
<path d="M38.456 232.767C38.456 234.11 38.2913 235.364 37.962 236.529C37.6327 237.694 37.1767 238.733 36.594 239.645C35.986 240.557 35.3147 241.317 34.58 241.925C33.8453 242.508 33.0727 242.888 32.262 243.065L30.742 237.973C31.6033 237.644 32.3507 237.061 32.984 236.225C33.592 235.389 33.9087 234.338 33.934 233.071C33.9593 231.728 33.668 230.639 33.06 229.803C32.452 228.942 31.6667 228.511 30.704 228.511C29.868 228.511 29.1713 228.853 28.614 229.537C28.0313 230.196 27.588 231.108 27.284 232.273L26.372 235.731C26.0427 237.023 25.5487 238.163 24.89 239.151C24.206 240.139 23.37 240.912 22.382 241.469C21.394 242.026 20.2413 242.305 18.924 242.305C16.416 242.305 14.4653 241.482 13.072 239.835C11.6533 238.163 10.944 235.807 10.944 232.767C10.944 231.07 11.1973 229.588 11.704 228.321C12.1853 227.029 12.882 225.952 13.794 225.091C14.706 224.23 15.7827 223.571 17.024 223.115L18.582 228.169C17.7207 228.473 16.986 229.03 16.378 229.841C15.77 230.652 15.466 231.678 15.466 232.919C15.466 234.186 15.7573 235.186 16.34 235.921C16.9227 236.63 17.746 236.985 18.81 236.985C19.646 236.985 20.3047 236.706 20.786 236.149C21.2673 235.566 21.6347 234.781 21.888 233.793L22.762 230.297C23.3193 228.017 24.32 226.244 25.764 224.977C27.208 223.71 28.8167 223.077 30.59 223.077C32.1607 223.077 33.5413 223.457 34.732 224.217C35.8973 224.977 36.8093 226.079 37.468 227.523C38.1267 228.967 38.456 230.715 38.456 232.767ZM38 210.991H16.15L16.15 218.971H11.4L11.4 197.843H16.15V205.785H38V210.991ZM38 181.369H11.4L11.4 164.535H16.15L16.15 176.163H22.192V166.131H26.828L26.828 176.163H33.25V164.383H38V181.369ZM38 148.404L11.4 138.334L11.4 132.748L38 143.312V148.404ZM38 148.974L11.4 159.576L11.4 153.99L38 143.882V148.974ZM38 127.568H11.4L11.4 110.734H16.15V122.362H22.192V112.33H26.828V122.362H33.25V110.582H38V127.568ZM38 103.191H11.4L11.4 97.7571L29.26 84.7611H11.4L11.4 79.5931H38V84.7611L19.798 97.9851H38V103.191ZM38 66.1765H16.15V74.1565H11.4L11.4 53.0285H16.15V60.9705H38V66.1765ZM38.456 38.6791C38.456 40.0217 38.2913 41.2757 37.962 42.4411C37.6327 43.6064 37.1767 44.6451 36.594 45.5571C35.986 46.4691 35.3147 47.2291 34.58 47.8371C33.8453 48.4197 33.0727 48.7997 32.262 48.9771L30.742 43.8851C31.6033 43.5557 32.3507 42.9731 32.984 42.1371C33.592 41.3011 33.9087 40.2497 33.934 38.9831C33.9593 37.6404 33.668 36.5511 33.06 35.7151C32.452 34.8537 31.6667 34.4231 30.704 34.4231C29.868 34.4231 29.1713 34.7651 28.614 35.4491C28.0313 36.1077 27.588 37.0197 27.284 38.1851L26.372 41.6431C26.0427 42.9351 25.5487 44.0751 24.89 45.0631C24.206 46.0511 23.37 46.8237 22.382 47.3811C21.394 47.9384 20.2413 48.2171 18.924 48.2171C16.416 48.2171 14.4653 47.3937 13.072 45.7471C11.6533 44.0751 10.944 41.7191 10.944 38.6791C10.944 36.9817 11.1973 35.4997 11.704 34.2331C12.1853 32.9411 12.882 31.8644 13.794 31.0031C14.706 30.1417 15.7827 29.4831 17.024 29.0271L18.582 34.0811C17.7207 34.3851 16.986 34.9424 16.378 35.7531C15.77 36.5637 15.466 37.5897 15.466 38.8311C15.466 40.0977 15.7573 41.0984 16.34 41.8331C16.9227 42.5424 17.746 42.8971 18.81 42.8971C19.646 42.8971 20.3047 42.6184 20.786 42.0611C21.2673 41.4784 21.6347 40.6931 21.888 39.7051L22.762 36.2091C23.3193 33.9291 24.32 32.1557 25.764 30.8891C27.208 29.6224 28.8167 28.9891 30.59 28.9891C32.1607 28.9891 33.5413 29.3691 34.732 30.1291C35.8973 30.8891 36.8093 31.9911 37.468 33.4351C38.1267 34.8791 38.456 36.6271 38.456 38.6791Z" fill="white"/>
</svg>
