<svg width="50" height="259" viewBox="0 0 50 259" fill="none" xmlns="http://www.w3.org/2000/svg">
<rect width="259" height="50" transform="matrix(0 -1 1 0 0 259)" fill="#2C1B1B"/>
<path d="M38.456 216.581C38.456 217.924 38.2913 219.178 37.962 220.343C37.6327 221.509 37.1767 222.547 36.594 223.459C35.986 224.371 35.3147 225.131 34.58 225.739C33.8453 226.322 33.0727 226.702 32.262 226.879L30.742 221.787C31.6033 221.458 32.3507 220.875 32.984 220.039C33.592 219.203 33.9087 218.152 33.934 216.885C33.9593 215.543 33.668 214.453 33.06 213.617C32.452 212.756 31.6667 212.325 30.704 212.325C29.868 212.325 29.1713 212.667 28.614 213.351C28.0313 214.01 27.588 214.922 27.284 216.087L26.372 219.545C26.0427 220.837 25.5487 221.977 24.89 222.965C24.206 223.953 23.37 224.726 22.382 225.283C21.394 225.841 20.2413 226.119 18.924 226.119C16.416 226.119 14.4653 225.296 13.072 223.649C11.6533 221.977 10.944 219.621 10.944 216.581C10.944 214.884 11.1973 213.402 11.704 212.135C12.1853 210.843 12.882 209.767 13.794 208.905C14.706 208.044 15.7827 207.385 17.024 206.929L18.582 211.983C17.7207 212.287 16.986 212.845 16.378 213.655C15.77 214.466 15.466 215.492 15.466 216.733C15.466 218 15.7573 219.001 16.34 219.735C16.9227 220.445 17.746 220.799 18.81 220.799C19.646 220.799 20.3047 220.521 20.786 219.963C21.2673 219.381 21.6347 218.595 21.888 217.607L22.762 214.111C23.3193 211.831 24.32 210.058 25.764 208.791C27.208 207.525 28.8167 206.891 30.59 206.891C32.1607 206.891 33.5413 207.271 34.732 208.031C35.8973 208.791 36.8093 209.893 37.468 211.337C38.1267 212.781 38.456 214.529 38.456 216.581ZM38 194.805H16.15L16.15 202.785H11.4L11.4 181.657H16.15V189.599H38V194.805ZM38 165.183H11.4L11.4 156.177C11.4 154.353 11.6787 152.757 12.236 151.389C12.7933 150.021 13.642 148.957 14.782 148.197C15.8967 147.437 17.29 147.057 18.962 147.057C20.0007 147.057 20.9633 147.323 21.85 147.855C22.7113 148.362 23.4587 149.084 24.092 150.021C24.7253 148.78 25.574 147.83 26.638 147.171C27.6767 146.487 28.9307 146.145 30.4 146.145C32.0213 146.145 33.402 146.513 34.542 147.247C35.682 147.982 36.5433 149.008 37.126 150.325C37.7087 151.643 38 153.188 38 154.961V165.183ZM33.402 160.091V155.455C33.402 154.214 33.098 153.239 32.49 152.529C31.8567 151.82 31.0207 151.465 29.982 151.465C28.8927 151.465 28.044 151.858 27.436 152.643C26.8027 153.429 26.486 154.505 26.486 155.873V160.091H33.402ZM22.23 160.091L22.23 156.063C22.23 154.923 21.9387 154.024 21.356 153.365C20.7733 152.707 19.95 152.377 18.886 152.377C17.822 152.377 16.9987 152.745 16.416 153.479C15.8333 154.214 15.542 155.215 15.542 156.481L15.542 160.091H22.23ZM38 139.916H11.4L11.4 123.082H16.15L16.15 134.71H22.192L22.192 124.678H26.828L26.828 134.71H33.25V122.93H38V139.916ZM38 97.1088L11.4 107.293V102.087L38 91.5988V97.1088ZM38 118.123L11.4 107.635V102.429L38 112.613V118.123ZM32.148 113.183H27.55L27.55 96.5008H32.148L32.148 113.183ZM38.456 77.4818C38.456 78.8245 38.2913 80.0785 37.962 81.2438C37.6327 82.4091 37.1767 83.4478 36.594 84.3598C35.986 85.2718 35.3147 86.0318 34.58 86.6398C33.8453 87.2225 33.0727 87.6025 32.262 87.7798L30.742 82.6878C31.6033 82.3585 32.3507 81.7758 32.984 80.9398C33.592 80.1038 33.9087 79.0525 33.934 77.7858C33.9593 76.4431 33.668 75.3538 33.06 74.5178C32.452 73.6565 31.6667 73.2258 30.704 73.2258C29.868 73.2258 29.1713 73.5678 28.614 74.2518C28.0313 74.9105 27.588 75.8225 27.284 76.9878L26.372 80.4458C26.0427 81.7378 25.5487 82.8778 24.89 83.8658C24.206 84.8538 23.37 85.6265 22.382 86.1838C21.394 86.7411 20.2413 87.0198 18.924 87.0198C16.416 87.0198 14.4653 86.1965 13.072 84.5498C11.6533 82.8778 10.944 80.5218 10.944 77.4818C10.944 75.7845 11.1973 74.3025 11.704 73.0358C12.1853 71.7438 12.882 70.6671 13.794 69.8058C14.706 68.9445 15.7827 68.2858 17.024 67.8298L18.582 72.8838C17.7207 73.1878 16.986 73.7451 16.378 74.5558C15.77 75.3665 15.466 76.3925 15.466 77.6338C15.466 78.9005 15.7573 79.9011 16.34 80.6358C16.9227 81.3451 17.746 81.6998 18.81 81.6998C19.646 81.6998 20.3047 81.4211 20.786 80.8638C21.2673 80.2811 21.6347 79.4958 21.888 78.5078L22.762 75.0118C23.3193 72.7318 24.32 70.9585 25.764 69.6918C27.208 68.4251 28.8167 67.7918 30.59 67.7918C32.1607 67.7918 33.5413 68.1718 34.732 68.9318C35.8973 69.6918 36.8093 70.7938 37.468 72.2378C38.1267 73.6818 38.456 75.4298 38.456 77.4818ZM38 55.7058H16.15V63.6858H11.4L11.4 42.5578H16.15L16.15 50.4998H38V55.7058ZM38.57 35.3144C38.57 36.1504 38.266 36.8724 37.658 37.4804C37.05 38.063 36.328 38.3544 35.492 38.3544C34.6813 38.3544 33.972 38.063 33.364 37.4804C32.756 36.8724 32.452 36.1504 32.452 35.3144C32.452 34.4784 32.756 33.769 33.364 33.1864C33.972 32.5784 34.6813 32.2744 35.492 32.2744C36.328 32.2744 37.05 32.5784 37.658 33.1864C38.266 33.769 38.57 34.4784 38.57 35.3144Z" fill="white"/>
</svg>
