<svg width="50" height="278" viewBox="0 0 50 278" fill="none" xmlns="http://www.w3.org/2000/svg">
<rect width="278" height="50" transform="matrix(0 -1 1 0 0 278)" fill="#2C1B1B"/>
<path d="M38.456 242.02C38.456 243.363 38.2913 244.617 37.962 245.782C37.6327 246.947 37.1767 247.986 36.594 248.898C35.986 249.81 35.3147 250.57 34.58 251.178C33.8453 251.761 33.0727 252.141 32.262 252.318L30.742 247.226C31.6033 246.897 32.3507 246.314 32.984 245.478C33.592 244.642 33.9087 243.591 33.934 242.324C33.9593 240.981 33.668 239.892 33.06 239.056C32.452 238.195 31.6667 237.764 30.704 237.764C29.868 237.764 29.1713 238.106 28.614 238.79C28.0313 239.449 27.588 240.361 27.284 241.526L26.372 244.984C26.0427 246.276 25.5487 247.416 24.89 248.404C24.206 249.392 23.37 250.165 22.382 250.722C21.394 251.279 20.2413 251.558 18.924 251.558C16.416 251.558 14.4653 250.735 13.072 249.088C11.6533 247.416 10.944 245.06 10.944 242.02C10.944 240.323 11.1973 238.841 11.704 237.574C12.1853 236.282 12.882 235.205 13.794 234.344C14.706 233.483 15.7827 232.824 17.024 232.368L18.582 237.422C17.7207 237.726 16.986 238.283 16.378 239.094C15.77 239.905 15.466 240.931 15.466 242.172C15.466 243.439 15.7573 244.439 16.34 245.174C16.9227 245.883 17.746 246.238 18.81 246.238C19.646 246.238 20.3047 245.959 20.786 245.402C21.2673 244.819 21.6347 244.034 21.888 243.046L22.762 239.55C23.3193 237.27 24.32 235.497 25.764 234.23C27.208 232.963 28.8167 232.33 30.59 232.33C32.1607 232.33 33.5413 232.71 34.732 233.47C35.8973 234.23 36.8093 235.332 37.468 236.776C38.1267 238.22 38.456 239.968 38.456 242.02ZM38 220.244H16.15L16.15 228.224H11.4L11.4 207.096H16.15V215.038H38V220.244ZM38.456 181.692C38.456 183.034 38.2913 184.288 37.962 185.454C37.6327 186.619 37.1767 187.658 36.594 188.57C35.986 189.482 35.3147 190.242 34.58 190.85C33.8453 191.432 33.0727 191.812 32.262 191.99L30.742 186.898C31.6033 186.568 32.3507 185.986 32.984 185.15C33.592 184.314 33.9087 183.262 33.934 181.996C33.9593 180.653 33.668 179.564 33.06 178.728C32.452 177.866 31.6667 177.436 30.704 177.436C29.868 177.436 29.1713 177.778 28.614 178.462C28.0313 179.12 27.588 180.032 27.284 181.198L26.372 184.656C26.0427 185.948 25.5487 187.088 24.89 188.076C24.206 189.064 23.37 189.836 22.382 190.394C21.394 190.951 20.2413 191.23 18.924 191.23C16.416 191.23 14.4653 190.406 13.072 188.76C11.6533 187.088 10.944 184.732 10.944 181.692C10.944 179.994 11.1973 178.512 11.704 177.246C12.1853 175.954 12.882 174.877 13.794 174.016C14.706 173.154 15.7827 172.496 17.024 172.04L18.582 177.094C17.7207 177.398 16.986 177.955 16.378 178.766C15.77 179.576 15.466 180.602 15.466 181.844C15.466 183.11 15.7573 184.111 16.34 184.846C16.9227 185.555 17.746 185.91 18.81 185.91C19.646 185.91 20.3047 185.631 20.786 185.074C21.2673 184.491 21.6347 183.706 21.888 182.718L22.762 179.222C23.3193 176.942 24.32 175.168 25.764 173.902C27.208 172.635 28.8167 172.002 30.59 172.002C32.1607 172.002 33.5413 172.382 34.732 173.142C35.8973 173.902 36.8093 175.004 37.468 176.448C38.1267 177.892 38.456 179.64 38.456 181.692ZM38.456 153.798C38.456 156.382 37.8733 158.674 36.708 160.676C35.5173 162.677 33.896 164.248 31.844 165.388C29.7667 166.528 27.3853 167.098 24.7 167.098C22.0147 167.098 19.646 166.528 17.594 165.388C15.5167 164.248 13.8953 162.69 12.73 160.714C11.5393 158.712 10.944 156.42 10.944 153.836C10.944 152.012 11.2733 150.314 11.932 148.744C12.5653 147.173 13.4647 145.805 14.63 144.64C15.77 143.449 17.0873 142.537 18.582 141.904L20.368 146.73C19.4307 147.16 18.62 147.73 17.936 148.44C17.2267 149.149 16.682 149.96 16.302 150.872C15.8967 151.784 15.694 152.772 15.694 153.836C15.694 155.381 16.0867 156.762 16.872 157.978C17.632 159.168 18.6833 160.106 20.026 160.79C21.3687 161.448 22.9267 161.778 24.7 161.778C26.4733 161.778 28.044 161.436 29.412 160.752C30.7547 160.068 31.8187 159.118 32.604 157.902C33.364 156.686 33.744 155.292 33.744 153.722C33.744 152.632 33.5413 151.644 33.136 150.758C32.7053 149.846 32.1227 149.048 31.388 148.364C30.6533 147.654 29.8047 147.084 28.842 146.654L30.59 141.828C32.1353 142.461 33.5033 143.373 34.694 144.564C35.8847 145.729 36.8093 147.097 37.468 148.668C38.1267 150.238 38.456 151.948 38.456 153.798ZM38 118.487H11.4V113.281H38L38 118.487ZM38 136.005H11.362L11.362 130.799H38V136.005ZM26.79 132.129H22.002V116.017H26.79L26.79 132.129ZM38.456 93.3446C38.456 96.0299 37.8733 98.4112 36.708 100.489C35.5173 102.541 33.896 104.149 31.844 105.315C29.7667 106.48 27.398 107.063 24.738 107.063C22.0273 107.063 19.646 106.48 17.594 105.315C15.5167 104.149 13.8953 102.553 12.73 100.527C11.5647 98.4746 10.982 96.1186 10.982 93.4586C10.982 90.7732 11.5773 88.4172 12.768 86.3906C13.9333 84.3386 15.5547 82.7299 17.632 81.5646C19.684 80.3992 22.0527 79.8166 24.738 79.8166C27.398 79.8166 29.7667 80.3992 31.844 81.5646C33.896 82.7046 35.5173 84.3006 36.708 86.3526C37.8733 88.3792 38.456 90.7099 38.456 93.3446ZM33.706 93.3446C33.706 91.7232 33.326 90.3046 32.566 89.0886C31.7807 87.8472 30.7167 86.8846 29.374 86.2006C28.0313 85.4912 26.486 85.1366 24.738 85.1366C22.9647 85.1366 21.4067 85.4912 20.064 86.2006C18.7213 86.9099 17.67 87.8852 16.91 89.1266C16.1247 90.3679 15.732 91.8119 15.732 93.4586C15.732 95.0546 16.1247 96.4859 16.91 97.7526C17.67 98.9939 18.7213 99.9692 20.064 100.679C21.4067 101.388 22.9647 101.743 24.738 101.743C26.486 101.743 28.0313 101.388 29.374 100.679C30.7167 99.9692 31.7807 98.9812 32.566 97.7146C33.326 96.4479 33.706 94.9912 33.706 93.3446ZM38.456 61.4344C38.456 64.1198 37.8733 66.5011 36.708 68.5784C35.5173 70.6304 33.896 72.2391 31.844 73.4044C29.7667 74.5698 27.398 75.1524 24.738 75.1524C22.0273 75.1524 19.646 74.5698 17.594 73.4044C15.5167 72.2391 13.8953 70.6431 12.73 68.6164C11.5647 66.5644 10.982 64.2084 10.982 61.5484C10.982 58.8631 11.5773 56.5071 12.768 54.4804C13.9333 52.4284 15.5547 50.8198 17.632 49.6544C19.684 48.4891 22.0527 47.9064 24.738 47.9064C27.398 47.9064 29.7667 48.4891 31.844 49.6544C33.896 50.7944 35.5173 52.3904 36.708 54.4424C37.8733 56.4691 38.456 58.7998 38.456 61.4344ZM33.706 61.4344C33.706 59.8131 33.326 58.3944 32.566 57.1784C31.7807 55.9371 30.7167 54.9744 29.374 54.2904C28.0313 53.5811 26.486 53.2264 24.738 53.2264C22.9647 53.2264 21.4067 53.5811 20.064 54.2904C18.7213 54.9998 17.67 55.9751 16.91 57.2164C16.1247 58.4578 15.732 59.9018 15.732 61.5484C15.732 63.1444 16.1247 64.5758 16.91 65.8424C17.67 67.0838 18.7213 68.0591 20.064 68.7684C21.4067 69.4778 22.9647 69.8324 24.738 69.8324C26.486 69.8324 28.0313 69.4778 29.374 68.7684C30.7167 68.0591 31.7807 67.0711 32.566 65.8044C33.326 64.5378 33.706 63.0811 33.706 61.4344ZM38 41.6843H11.4L11.4 36.4783H33.25L33.25 24.7743H38L38 41.6843Z" fill="white"/>
</svg>
