<svg width="50" height="300" viewBox="0 0 50 300" fill="none" xmlns="http://www.w3.org/2000/svg">
<rect width="300" height="50" transform="matrix(0 -1 1 0 0 300)" fill="#FFE3E3"/>
<path d="M38 258.684L11.4 251.046L11.4 245.764L38 253.706V258.684ZM38 274.72L11.4 282.586V277.304L38 269.742V274.72ZM38 274.036L11.4 266.778V262.066L38 269.286V274.036ZM38 259.178L11.4 266.322V261.61L38 254.2V259.178ZM38 223.04H11.4V217.834H38V223.04ZM38 240.558H11.362V235.352H38V240.558ZM26.79 236.682H22.002L22.002 220.57H26.79L26.79 236.682ZM38.456 197.898C38.456 200.584 37.8733 202.965 36.708 205.042C35.5173 207.094 33.896 208.703 31.844 209.868C29.7667 211.034 27.398 211.616 24.738 211.616C22.0273 211.616 19.646 211.034 17.594 209.868C15.5167 208.703 13.8953 207.107 12.73 205.08C11.5647 203.028 10.982 200.672 10.982 198.012C10.982 195.327 11.5773 192.971 12.768 190.944C13.9333 188.892 15.5547 187.284 17.632 186.118C19.684 184.953 22.0527 184.37 24.738 184.37C27.398 184.37 29.7667 184.953 31.844 186.118C33.896 187.258 35.5173 188.854 36.708 190.906C37.8733 192.933 38.456 195.264 38.456 197.898ZM33.706 197.898C33.706 196.277 33.326 194.858 32.566 193.642C31.7807 192.401 30.7167 191.438 29.374 190.754C28.0313 190.045 26.486 189.69 24.738 189.69C22.9647 189.69 21.4067 190.045 20.064 190.754C18.7213 191.464 17.67 192.439 16.91 193.68C16.1247 194.922 15.732 196.366 15.732 198.012C15.732 199.608 16.1247 201.04 16.91 202.306C17.67 203.548 18.7213 204.523 20.064 205.232C21.4067 205.942 22.9647 206.296 24.738 206.296C26.486 206.296 28.0313 205.942 29.374 205.232C30.7167 204.523 31.7807 203.535 32.566 202.268C33.326 201.002 33.706 199.545 33.706 197.898ZM38 145.775L11.4 138.137V132.855L38 140.797L38 145.775ZM38 161.811L11.4 169.677V164.395L38 156.833V161.811ZM38 161.127L11.4 153.869L11.4 149.157L38 156.377V161.127ZM38 146.269L11.4 153.413L11.4 148.701L38 141.291L38 146.269ZM38 127.65H11.4L11.4 110.816H16.15V122.444H22.192V112.412H26.828V122.444H33.25V110.664H38V127.65ZM38 73.7884L11.4 83.9724V78.7664L38 68.2784V73.7884ZM38 94.8024L11.4 84.3144V79.1084L38 89.2924V94.8024ZM32.148 89.8624H27.55L27.55 73.1804H32.148L32.148 89.8624ZM38 63.0915H11.4L11.4 53.2115C11.4 51.3368 11.7673 49.6775 12.502 48.2335C13.2367 46.7895 14.25 45.6622 15.542 44.8515C16.8087 44.0408 18.2907 43.6355 19.988 43.6355C21.66 43.6355 23.1547 44.0662 24.472 44.9275C25.764 45.7635 26.7773 46.9162 27.512 48.3855C28.2213 49.8548 28.576 51.5268 28.576 53.4015V57.8855H38L38 63.0915ZM38 48.4615L27.322 54.6175L24.472 50.6275L38 42.5715V48.4615ZM23.826 57.8855L23.826 53.1735C23.826 52.3882 23.6613 51.6915 23.332 51.0835C23.0027 50.4502 22.5467 49.9562 21.964 49.6015C21.3813 49.2215 20.7227 49.0315 19.988 49.0315C18.848 49.0315 17.9233 49.4495 17.214 50.2855C16.5047 51.0962 16.15 52.1475 16.15 53.4395V57.8855H23.826ZM38 36.5993H11.4L11.4 19.7653H16.15V31.3933H22.192V21.3613H26.828V31.3933H33.25V19.6133H38V36.5993Z" fill="#CE202F"/>
</svg>
