<svg width="50" height="259" viewBox="0 0 50 259" fill="none" xmlns="http://www.w3.org/2000/svg">
<rect width="259" height="50" transform="matrix(0 -1 1 0 0 259)" fill="#2C1B1B"/>
<path d="M38.456 201.612C38.456 202.954 38.2913 204.208 37.962 205.374C37.6327 206.539 37.1767 207.578 36.594 208.49C35.986 209.402 35.3147 210.162 34.58 210.77C33.8453 211.352 33.0727 211.732 32.262 211.91L30.742 206.818C31.6033 206.488 32.3507 205.906 32.984 205.07C33.592 204.234 33.9087 203.182 33.934 201.916C33.9593 200.573 33.668 199.484 33.06 198.648C32.452 197.786 31.6667 197.356 30.704 197.356C29.868 197.356 29.1713 197.698 28.614 198.382C28.0313 199.04 27.588 199.952 27.284 201.118L26.372 204.576C26.0427 205.868 25.5487 207.008 24.89 207.996C24.206 208.984 23.37 209.756 22.382 210.314C21.394 210.871 20.2413 211.15 18.924 211.15C16.416 211.15 14.4653 210.326 13.072 208.68C11.6533 207.008 10.944 204.652 10.944 201.612C10.944 199.914 11.1973 198.432 11.704 197.166C12.1853 195.874 12.882 194.797 13.794 193.936C14.706 193.074 15.7827 192.416 17.024 191.96L18.582 197.014C17.7207 197.318 16.986 197.875 16.378 198.686C15.77 199.496 15.466 200.522 15.466 201.764C15.466 203.03 15.7573 204.031 16.34 204.766C16.9227 205.475 17.746 205.83 18.81 205.83C19.646 205.83 20.3047 205.551 20.786 204.994C21.2673 204.411 21.6347 203.626 21.888 202.638L22.762 199.142C23.3193 196.862 24.32 195.088 25.764 193.822C27.208 192.555 28.8167 191.922 30.59 191.922C32.1607 191.922 33.5413 192.302 34.732 193.062C35.8973 193.822 36.8093 194.924 37.468 196.368C38.1267 197.812 38.456 199.56 38.456 201.612ZM38 179.836H16.15L16.15 187.816H11.4L11.4 166.688H16.15V174.63H38V179.836ZM38.456 138.472C38.456 141.056 37.8733 143.348 36.708 145.35C35.5173 147.351 33.896 148.922 31.844 150.062C29.7667 151.202 27.3853 151.772 24.7 151.772C22.0147 151.772 19.646 151.202 17.594 150.062C15.5167 148.922 13.8953 147.364 12.73 145.388C11.5393 143.386 10.944 141.094 10.944 138.51C10.944 136.686 11.2733 134.988 11.932 133.418C12.5653 131.847 13.4647 130.479 14.63 129.314C15.77 128.123 17.0873 127.211 18.582 126.578L20.368 131.404C19.4307 131.834 18.62 132.404 17.936 133.114C17.2267 133.823 16.682 134.634 16.302 135.546C15.8967 136.458 15.694 137.446 15.694 138.51C15.694 140.055 16.0867 141.436 16.872 142.652C17.632 143.842 18.6833 144.78 20.026 145.464C21.3687 146.122 22.9267 146.452 24.7 146.452C26.4733 146.452 28.044 146.11 29.412 145.426C30.7547 144.742 31.8187 143.792 32.604 142.576C33.364 141.36 33.744 139.966 33.744 138.396C33.744 137.306 33.5413 136.318 33.136 135.432C32.7053 134.52 32.1227 133.722 31.388 133.038C30.6533 132.328 29.8047 131.758 28.842 131.328L30.59 126.502C32.1353 127.135 33.5033 128.047 34.694 129.238C35.8847 130.403 36.8093 131.771 37.468 133.342C38.1267 134.912 38.456 136.622 38.456 138.472ZM38 102.248L11.4 112.432V107.226L38 96.7384L38 102.248ZM38 123.262L11.4 112.774V107.568L38 117.752V123.262ZM32.148 118.322H27.55V101.64H32.148V118.322ZM38 91.5515H11.4V81.6715C11.4 79.7968 11.7673 78.1375 12.502 76.6935C13.2367 75.2495 14.25 74.1221 15.542 73.3115C16.8087 72.5008 18.2907 72.0955 19.988 72.0955C21.66 72.0955 23.1547 72.5261 24.472 73.3875C25.764 74.2235 26.7773 75.3761 27.512 76.8455C28.2213 78.3148 28.576 79.9868 28.576 81.8615V86.3455H38V91.5515ZM38 76.9215L27.322 83.0775L24.472 79.0875L38 71.0315L38 76.9215ZM23.826 86.3455V81.6335C23.826 80.8481 23.6613 80.1515 23.332 79.5435C23.0027 78.9101 22.5467 78.4161 21.964 78.0615C21.3813 77.6815 20.7227 77.4915 19.988 77.4915C18.848 77.4915 17.9233 77.9095 17.214 78.7455C16.5047 79.5561 16.15 80.6075 16.15 81.8995V86.3455H23.826ZM38 65.0593H11.4L11.4 48.2253H16.15L16.15 59.8533H22.192V49.8213H26.828L26.828 59.8533H33.25V48.0733H38V65.0593Z" fill="white"/>
</svg>
